# Blender 3.1.0
# www.blender.org
mtllib pointer-cone.mtl
o pointer-cone
v -0.000000 1.023665 -0.332916
v -0.000000 -0.002015 0.000000
v -0.113864 1.023665 -0.312839
v -0.213994 1.023665 -0.255028
v -0.288314 1.023665 -0.166458
v -0.327858 1.023665 -0.057810
v -0.327858 1.023665 0.057810
v -0.288314 1.023665 0.166458
v -0.213994 1.023665 0.255028
v -0.113864 1.023665 0.312839
v -0.000000 1.023665 0.332916
v 0.113864 1.023665 0.312839
v 0.213994 1.023665 0.255028
v 0.288314 1.023665 0.166458
v 0.327858 1.023665 0.057810
v 0.327858 1.023665 -0.057810
v 0.288314 1.023665 -0.166458
v 0.213994 1.023665 -0.255028
v -0.102500 1.023665 0.059179
v -0.076079 1.023665 0.090667
v -0.076079 2.291670 0.090667
v -0.102500 2.291670 0.059179
v 0.113864 1.023665 -0.312839
v -0.040481 1.023665 -0.111219
v -0.000000 1.023665 -0.118357
v -0.076079 1.023665 -0.090667
v -0.102500 1.023665 -0.059179
v -0.116559 1.023665 -0.020553
v -0.116559 1.023665 0.020553
v -0.040481 1.023665 0.111220
v -0.000000 1.023665 0.118357
v 0.040481 1.023665 0.111220
v 0.076079 1.023665 0.090667
v 0.102500 1.023665 0.059179
v 0.116559 1.023665 0.020553
v 0.116559 1.023665 -0.020553
v 0.102500 1.023665 -0.059179
v 0.076079 1.023665 -0.090667
v 0.040481 1.023665 -0.111219
v 0.000000 2.291670 -0.118357
v -0.040481 2.291670 -0.111219
v -0.076079 2.291670 -0.090667
v -0.102500 2.291670 -0.059179
v -0.116559 2.291670 -0.020553
v -0.116559 2.291670 0.020553
v -0.040481 2.291670 0.111220
v 0.000000 2.291670 0.118357
v 0.040481 2.291670 0.111220
v 0.076079 2.291670 0.090667
v 0.102500 2.291670 0.059179
v 0.116559 2.291670 0.020553
v 0.116559 2.291670 -0.020553
v 0.102500 2.291670 -0.059179
v 0.076079 2.291670 -0.090667
v 0.040481 2.291670 -0.111219
vn -0.0000 -0.3087 -0.9512
vn -0.0000 -1.0000 -0.0000
vn -0.3253 -0.3087 -0.8938
vn -0.6114 -0.3087 -0.7286
vn -0.8237 -0.3087 -0.4756
vn -0.9367 -0.3087 -0.1652
vn -0.9367 -0.3087 0.1652
vn -0.8237 -0.3087 0.4756
vn -0.6114 -0.3087 0.7286
vn -0.3253 -0.3087 0.8938
vn -0.0000 -0.3087 0.9512
vn 0.3253 -0.3087 0.8938
vn 0.6114 -0.3087 0.7286
vn 0.8237 -0.3087 0.4756
vn 0.9367 -0.3087 0.1652
vn 0.9367 -0.3087 -0.1652
vn 0.8237 -0.3087 -0.4756
vn 0.6114 -0.3087 -0.7286
vn -0.8660 -0.0000 0.5000
vn -0.6428 -0.0000 0.7660
vn 0.3253 -0.3087 -0.8938
vn -0.0000 1.0000 -0.0000
vn 0.9848 -0.0000 -0.1737
vn 0.8660 -0.0000 -0.5000
vn -0.3420 -0.0000 0.9397
vn -0.0000 -0.0000 -1.0000
vn -0.3420 -0.0000 -0.9397
vn 0.6428 -0.0000 -0.7660
vn -0.0000 -0.0000 1.0000
vn -0.6428 -0.0000 -0.7660
vn 0.3420 -0.0000 -0.9397
vn 0.3420 -0.0000 0.9397
vn -0.8660 -0.0000 -0.5000
vn 0.6428 -0.0000 0.7660
vn -0.9848 -0.0000 -0.1737
vn 0.8660 -0.0000 0.5000
vn -0.9848 -0.0000 0.1737
vn 0.9848 -0.0000 0.1737
vt 0.250000 0.490000
vt 0.750000 0.490000
vt 0.250000 0.250000
vt 0.332085 0.475526
vt 0.832085 0.475526
vt 0.404269 0.433851
vt 0.904269 0.433851
vt 0.457846 0.370000
vt 0.957846 0.370000
vt 0.486354 0.291676
vt 0.986354 0.291676
vt 0.486354 0.208324
vt 0.986354 0.208324
vt 0.457846 0.130000
vt 0.957846 0.130000
vt 0.404269 0.066149
vt 0.904269 0.066149
vt 0.332085 0.024474
vt 0.832085 0.024474
vt 0.250000 0.010000
vt 0.750000 0.010000
vt 0.167915 0.024474
vt 0.667915 0.024474
vt 0.095731 0.066149
vt 0.595731 0.066149
vt 0.042154 0.130000
vt 0.542154 0.130000
vt 0.013646 0.208324
vt 0.513646 0.208324
vt 0.013646 0.291676
vt 0.513646 0.291676
vt 0.042154 0.370000
vt 0.542154 0.370000
vt 0.095731 0.433851
vt 0.595731 0.433851
vt 0.884077 0.172591
vt 0.849515 0.131402
vt 0.849515 0.131402
vt 0.884077 0.172591
vt 0.167915 0.475526
vt 0.667915 0.475526
vt 0.802951 0.395482
vt 0.750000 0.404818
vt 0.849516 0.368598
vt 0.884077 0.327409
vt 0.902466 0.276884
vt 0.902466 0.223116
vt 0.802951 0.104518
vt 0.750000 0.095182
vt 0.697049 0.104518
vt 0.650485 0.131402
vt 0.615923 0.172591
vt 0.597534 0.223116
vt 0.597534 0.276884
vt 0.615923 0.327409
vt 0.650485 0.368598
vt 0.697049 0.395482
vt 0.750000 0.404818
vt 0.802951 0.395482
vt 0.849516 0.368598
vt 0.884077 0.327409
vt 0.902466 0.276884
vt 0.902466 0.223116
vt 0.802951 0.104518
vt 0.750000 0.095182
vt 0.697049 0.104518
vt 0.650485 0.131402
vt 0.615923 0.172591
vt 0.597534 0.223116
vt 0.597534 0.276884
vt 0.615923 0.327409
vt 0.650485 0.368598
vt 0.697049 0.395482
s 1
usemtl Material.001
f 1/1/1 2/3/2 3/4/3
f 3/4/3 2/3/2 4/6/4
f 4/6/4 2/3/2 5/8/5
f 5/8/5 2/3/2 6/10/6
f 6/10/6 2/3/2 7/12/7
f 7/12/7 2/3/2 8/14/8
f 8/14/8 2/3/2 9/16/9
f 9/16/9 2/3/2 10/18/10
f 10/18/10 2/3/2 11/20/11
f 11/20/11 2/3/2 12/22/12
f 12/22/12 2/3/2 13/24/13
f 13/24/13 2/3/2 14/26/14
f 14/26/14 2/3/2 15/28/15
f 15/28/15 2/3/2 16/30/16
f 16/30/16 2/3/2 17/32/17
f 17/32/17 2/3/2 18/34/18
f 19/36/19 20/37/20 21/38/20 22/39/19
f 18/34/18 2/3/2 23/40/21
f 23/40/21 2/3/2 1/1/1
f 24/42/22 25/43/22 1/2/22 3/5/22
f 26/44/22 24/42/22 3/5/22 4/7/22
f 27/45/22 26/44/22 4/7/22 5/9/22
f 28/46/22 27/45/22 5/9/22 6/11/22
f 29/47/22 28/46/22 6/11/22 7/13/22
f 19/36/22 29/47/22 7/13/22 8/15/22
f 20/37/22 19/36/22 8/15/22 9/17/22
f 30/48/22 20/37/22 9/17/22 10/19/22
f 31/49/22 30/48/22 10/19/22 11/21/22
f 32/50/22 31/49/22 11/21/22 12/23/22
f 33/51/22 32/50/22 12/23/22 13/25/22
f 34/52/22 33/51/22 13/25/22 14/27/22
f 35/53/22 34/52/22 14/27/22 15/29/22
f 36/54/22 35/53/22 15/29/22 16/31/22
f 37/55/22 36/54/22 16/31/22 17/33/22
f 38/56/22 37/55/22 17/33/22 18/35/22
f 39/57/22 38/56/22 18/35/22 23/41/22
f 25/43/22 39/57/22 23/41/22 1/2/22
f 40/58/22 41/59/22 42/60/22 43/61/22 44/62/22 45/63/22 22/39/22 21/38/22 46/64/22 47/65/22 48/66/22 49/67/22 50/68/22 51/69/22 52/70/22 53/71/22 54/72/22 55/73/22
f 36/54/23 37/55/24 53/71/24 52/70/23
f 20/37/20 30/48/25 46/64/25 21/38/20
f 25/43/26 24/42/27 41/59/27 40/58/26
f 37/55/24 38/56/28 54/72/28 53/71/24
f 30/48/25 31/49/29 47/65/29 46/64/25
f 24/42/27 26/44/30 42/60/30 41/59/27
f 38/56/28 39/57/31 55/73/31 54/72/28
f 31/49/29 32/50/32 48/66/32 47/65/29
f 26/44/30 27/45/33 43/61/33 42/60/30
f 39/57/31 25/43/26 40/58/26 55/73/31
f 32/50/32 33/51/34 49/67/34 48/66/32
f 27/45/33 28/46/35 44/62/35 43/61/33
f 33/51/34 34/52/36 50/68/36 49/67/34
f 28/46/35 29/47/37 45/63/37 44/62/35
f 34/52/36 35/53/38 51/69/38 50/68/36
f 29/47/37 19/36/19 22/39/19 45/63/37
f 35/53/38 36/54/23 52/70/23 51/69/38
